<mxfile host="app.diagrams.net" modified="2024-03-28T23:03:27.684Z" agent="Mozilla/5.0 (Windows NT 10.0; Win64; x64) AppleWebKit/537.36 (KHTML, like Gecko) Chrome/123.0.0.0 Safari/537.36" etag="dh24oaPDVahBfZPh25CL" version="24.2.1" type="github">
  <diagram name="Page-1" id="6cvYSosrVUZ_tzEJeiGZ">
    <mxGraphModel dx="1207" dy="1177" grid="1" gridSize="10" guides="1" tooltips="1" connect="1" arrows="1" fold="1" page="1" pageScale="1" pageWidth="850" pageHeight="1100" math="0" shadow="0">
      <root>
        <mxCell id="0" />
        <mxCell id="1" parent="0" />
        <mxCell id="DmgAYluC5Luflu8pmHWb-13" style="edgeStyle=orthogonalEdgeStyle;rounded=0;orthogonalLoop=1;jettySize=auto;html=1;exitX=0.5;exitY=1;exitDx=0;exitDy=0;" edge="1" parent="1" source="DmgAYluC5Luflu8pmHWb-1" target="DmgAYluC5Luflu8pmHWb-2">
          <mxGeometry relative="1" as="geometry" />
        </mxCell>
        <mxCell id="DmgAYluC5Luflu8pmHWb-1" value="Strategy" style="rounded=0;whiteSpace=wrap;html=1;" vertex="1" parent="1">
          <mxGeometry x="200" y="360" width="120" height="60" as="geometry" />
        </mxCell>
        <mxCell id="DmgAYluC5Luflu8pmHWb-14" style="edgeStyle=orthogonalEdgeStyle;rounded=0;orthogonalLoop=1;jettySize=auto;html=1;exitX=0.5;exitY=1;exitDx=0;exitDy=0;entryX=0.5;entryY=0;entryDx=0;entryDy=0;" edge="1" parent="1" source="DmgAYluC5Luflu8pmHWb-2" target="DmgAYluC5Luflu8pmHWb-3">
          <mxGeometry relative="1" as="geometry" />
        </mxCell>
        <mxCell id="DmgAYluC5Luflu8pmHWb-2" value="Signal" style="rounded=0;whiteSpace=wrap;html=1;" vertex="1" parent="1">
          <mxGeometry x="200" y="480" width="120" height="60" as="geometry" />
        </mxCell>
        <mxCell id="DmgAYluC5Luflu8pmHWb-16" style="edgeStyle=orthogonalEdgeStyle;rounded=0;orthogonalLoop=1;jettySize=auto;html=1;exitX=0.5;exitY=1;exitDx=0;exitDy=0;entryX=0.5;entryY=0;entryDx=0;entryDy=0;" edge="1" parent="1" source="DmgAYluC5Luflu8pmHWb-3" target="DmgAYluC5Luflu8pmHWb-6">
          <mxGeometry relative="1" as="geometry" />
        </mxCell>
        <mxCell id="DmgAYluC5Luflu8pmHWb-18" style="edgeStyle=orthogonalEdgeStyle;rounded=0;orthogonalLoop=1;jettySize=auto;html=1;exitX=0.5;exitY=1;exitDx=0;exitDy=0;entryX=0.5;entryY=0;entryDx=0;entryDy=0;" edge="1" parent="1" source="DmgAYluC5Luflu8pmHWb-3" target="DmgAYluC5Luflu8pmHWb-15">
          <mxGeometry relative="1" as="geometry" />
        </mxCell>
        <mxCell id="DmgAYluC5Luflu8pmHWb-3" value="Order" style="rounded=0;whiteSpace=wrap;html=1;" vertex="1" parent="1">
          <mxGeometry x="200" y="600" width="120" height="60" as="geometry" />
        </mxCell>
        <mxCell id="DmgAYluC5Luflu8pmHWb-12" style="edgeStyle=orthogonalEdgeStyle;rounded=0;orthogonalLoop=1;jettySize=auto;html=1;exitX=0.5;exitY=1;exitDx=0;exitDy=0;entryX=0.5;entryY=0;entryDx=0;entryDy=0;" edge="1" parent="1" source="DmgAYluC5Luflu8pmHWb-5" target="DmgAYluC5Luflu8pmHWb-1">
          <mxGeometry relative="1" as="geometry" />
        </mxCell>
        <mxCell id="DmgAYluC5Luflu8pmHWb-5" value="Historic Data" style="rounded=0;whiteSpace=wrap;html=1;" vertex="1" parent="1">
          <mxGeometry x="200" y="240" width="120" height="60" as="geometry" />
        </mxCell>
        <mxCell id="DmgAYluC5Luflu8pmHWb-28" style="edgeStyle=orthogonalEdgeStyle;rounded=0;orthogonalLoop=1;jettySize=auto;html=1;exitX=0.5;exitY=1;exitDx=0;exitDy=0;entryX=0.5;entryY=0;entryDx=0;entryDy=0;" edge="1" parent="1" source="DmgAYluC5Luflu8pmHWb-6" target="DmgAYluC5Luflu8pmHWb-25">
          <mxGeometry relative="1" as="geometry" />
        </mxCell>
        <mxCell id="DmgAYluC5Luflu8pmHWb-6" value="Backtest&amp;nbsp;" style="rounded=0;whiteSpace=wrap;html=1;" vertex="1" parent="1">
          <mxGeometry x="120" y="730" width="120" height="60" as="geometry" />
        </mxCell>
        <mxCell id="DmgAYluC5Luflu8pmHWb-31" style="edgeStyle=orthogonalEdgeStyle;rounded=0;orthogonalLoop=1;jettySize=auto;html=1;exitX=0.5;exitY=1;exitDx=0;exitDy=0;" edge="1" parent="1" source="DmgAYluC5Luflu8pmHWb-15" target="DmgAYluC5Luflu8pmHWb-25">
          <mxGeometry relative="1" as="geometry" />
        </mxCell>
        <mxCell id="DmgAYluC5Luflu8pmHWb-15" value="LIve Trading" style="rounded=0;whiteSpace=wrap;html=1;" vertex="1" parent="1">
          <mxGeometry x="280" y="730" width="120" height="60" as="geometry" />
        </mxCell>
        <mxCell id="DmgAYluC5Luflu8pmHWb-30" style="edgeStyle=orthogonalEdgeStyle;rounded=0;orthogonalLoop=1;jettySize=auto;html=1;exitX=0.5;exitY=1;exitDx=0;exitDy=0;entryX=0.5;entryY=0;entryDx=0;entryDy=0;" edge="1" parent="1" source="DmgAYluC5Luflu8pmHWb-25" target="DmgAYluC5Luflu8pmHWb-26">
          <mxGeometry relative="1" as="geometry" />
        </mxCell>
        <mxCell id="DmgAYluC5Luflu8pmHWb-25" value="Order Hisotry" style="rounded=0;whiteSpace=wrap;html=1;" vertex="1" parent="1">
          <mxGeometry x="200" y="870" width="120" height="60" as="geometry" />
        </mxCell>
        <mxCell id="DmgAYluC5Luflu8pmHWb-26" value="Performance Metrics" style="rounded=0;whiteSpace=wrap;html=1;" vertex="1" parent="1">
          <mxGeometry x="200" y="980" width="120" height="60" as="geometry" />
        </mxCell>
      </root>
    </mxGraphModel>
  </diagram>
</mxfile>
